<svg xmlns="http://www.w3.org/2000/svg" viewBox="0 0 300 60">
  <!-- Two pip icon - Yellow -->
  <g transform="translate(10, 10)">
    <rect x="0" y="0" width="40" height="40" rx="5" stroke="white" stroke-width="2" fill="#FFD700"/>
    <circle cx="15" cy="15" r="4" fill="white"/>
    <circle cx="25" cy="25" r="4" fill="white"/>
    <line x1="15" y1="15" x2="25" y2="25" stroke="white" stroke-width="2"/>
  </g>

  <!-- Three pip icon - Orange -->
  <g transform="translate(70, 10)">
    <rect x="0" y="0" width="40" height="40" rx="5" stroke="white" stroke-width="2" fill="#FFA500"/>
    <circle cx="20" cy="15" r="4" fill="white"/>
    <circle cx="13" cy="28" r="4" fill="white"/>
    <circle cx="27" cy="28" r="4" fill="white"/>
    <path d="M20,15 L13,28 M20,15 L27,28" stroke="white" stroke-width="2"/>
  </g>

  <!-- Four pip icon - Red -->
  <g transform="translate(130, 10)">
    <rect x="0" y="0" width="40" height="40" rx="5" stroke="white" stroke-width="2" fill="#FF0000"/>
    <circle cx="13" cy="13" r="4" fill="white"/>
    <circle cx="27" cy="13" r="4" fill="white"/>
    <circle cx="13" cy="27" r="4" fill="white"/>
    <circle cx="27" cy="27" r="4" fill="white"/>
    <path d="M13,13 L27,27 M27,13 L13,27" stroke="white" stroke-width="2"/>
  </g>

  <!-- Five pip icon - Purple Hub and Spokes -->
  <g transform="translate(190, 10)">
    <rect x="0" y="0" width="40" height="40" rx="5" stroke="white" stroke-width="2" fill="#800080"/>
    <!-- Outer pips in pentagon pattern -->
    <circle cx="20" cy="8" r="4" fill="white"/>
    <circle cx="32" cy="16" r="4" fill="white"/>
    <circle cx="28" cy="30" r="4" fill="white"/>
    <circle cx="12" cy="30" r="4" fill="white"/>
    <circle cx="8" cy="16" r="4" fill="white"/>
    <!-- Connecting lines from center -->
    <path d="M20,20 L20,8 M20,20 L32,16 M20,20 L28,30 M20,20 L12,30 M20,20 L8,16" 
          stroke="white" stroke-width="2" fill="none"/>
  </g>

  <!-- Question mark icon -->
  <g transform="translate(250, 10)">
    <rect x="0" y="0" width="40" height="40" rx="5" stroke="white" stroke-width="2" fill="black"/>
    <path d="M15,12 C15,8 25,8 25,12 C25,16 20,18 20,22" stroke="white" stroke-width="3" fill="none"/>
    <circle cx="20" cy="28" r="4" fill="white"/>
  </g>
</svg>